# xmcd CD database file
#
# Track frame offsets:
#	150
#	13902
#	27486
#	39538
#	51450
#	66483
#	80652
#	96340
#	109116
#	124818
#	138290
#	154270
#
# Disc length: 2220 seconds
#
# Revision: 0
# Processed by: cddbd v1.5.1PL2 Copyright (c) Steve Scherf et al.
# Submitted via: CDex 1.51
#
DISCID=af08aa0c
DTITLE=MARY DUFF - LOVE SOMEONE
DYEAR=1900
DGENRE=Country
TTITLE0=LOVE SOMEONE LIKE ME
TTITLE1=SHE'S GOT YOU
TTITLE2=ARE YOU TEASING ME
TTITLE3=CRAZY
TTITLE4=FOREVER AND EVER AMEN
TTITLE5=IT'S NOT OVER (IF I'M NOT OVER YOU
TTITLE6=DADDY'S HANDS
TTITLE7=PICK ME UP(ON YOUR WAY DOWN
TTITLE8=DEAR GOD
TTITLE9=CHICKEN EVERY SUNDAY
TTITLE10=THERE WON'T BE PATCHES IN HEAVEN
TTITLE11=DO ME WITH LOVE
EXTD=
EXTT0=
EXTT1=
EXTT2=
EXTT3=
EXTT4=
EXTT5=
EXTT6=
EXTT7=
EXTT8=
EXTT9=
EXTT10=
EXTT11=
PLAYORDER=
